# xmcd
#
# Track frame offsets:
#	150
#	20139
#	40435
#	58920
#	80553
#
# Disc length: 1454 seconds
#
# Revision: 0
# Processed by: cddbd v1.5.1PL0 Copyright (c) Steve Scherf et al.
# Submitted via: dBpowerAMP V4.0
#
DISCID=4305ac05
DTITLE=R. Kelly - The "R." In R&B Collection Vol. 1(Bonus CD)
DYEAR=2003
DGENRE=Blues
TTITLE0=Bump n Grind (Old School Mix)
TTITLE1=Down Low (Nobody Has to Know) Feat. Ronald Isley (Live to Regret it Mix) (Blame it on The Mo)
TTITLE2=I Can t Sleep Baby (if i) (Remix)
TTITLE3=Gotham City (Remix)
TTITLE4=If I Could Turn Back The Hands of Time
EXTD=
EXTT0=
EXTT1=
EXTT2=
EXTT3=
EXTT4=
PLAYORDER=
